<?xml version="1.0" encoding="utf-8"?>
<svg viewBox="-67.349 520.157 640 512" xmlns="http://www.w3.org/2000/svg">
  <path d="M 252.651 520.157 C 270.351 520.157 284.651 534.457 284.651 552.157 L 284.651 616.157 L 404.651 616.157 C 444.451 616.157 476.651 648.357 476.651 688.157 L 476.651 960.157 C 476.651 999.957 444.451 1032.157 404.651 1032.157 L 100.651 1032.157 C 60.851 1032.157 28.651 999.957 28.651 960.157 L 28.651 688.157 C 28.651 648.357 60.851 616.157 100.651 616.157 L 220.651 616.157 L 220.651 552.157 C 220.651 534.457 234.951 520.157 252.651 520.157 Z M 140.651 904.157 C 131.851 904.157 124.651 911.357 124.651 920.157 C 124.651 928.957 131.851 936.157 140.651 936.157 L 172.651 936.157 C 181.451 936.157 188.651 928.957 188.651 920.157 C 188.651 911.357 181.451 904.157 172.651 904.157 L 140.651 904.157 Z M 236.651 904.157 C 227.851 904.157 220.651 911.357 220.651 920.157 C 220.651 928.957 227.851 936.157 236.651 936.157 L 268.651 936.157 C 277.451 936.157 284.651 928.957 284.651 920.157 C 284.651 911.357 277.451 904.157 268.651 904.157 L 236.651 904.157 Z M 332.651 904.157 C 323.851 904.157 316.651 911.357 316.651 920.157 C 316.651 928.957 323.851 936.157 332.651 936.157 L 364.651 936.157 C 373.451 936.157 380.651 928.957 380.651 920.157 C 380.651 911.357 373.451 904.157 364.651 904.157 L 332.651 904.157 Z M 196.651 776.157 C 196.651 745.365 163.318 726.12 136.651 741.516 C 124.275 748.661 116.651 761.866 116.651 776.157 C 116.651 806.949 149.985 826.194 176.651 810.798 C 189.027 803.652 196.651 790.447 196.651 776.157 Z M 348.651 816.157 C 379.443 816.157 398.688 782.823 383.292 756.157 C 376.147 743.781 362.942 736.157 348.651 736.157 C 317.859 736.157 298.614 769.49 314.01 796.157 C 321.156 808.533 334.361 816.157 348.651 816.157 Z M -19.349 744.157 L -3.349 744.157 L -3.349 936.157 L -19.349 936.157 C -45.849 936.157 -67.349 914.657 -67.349 888.157 L -67.349 792.157 C -67.349 765.657 -45.849 744.157 -19.349 744.157 Z M 524.651 744.157 C 551.151 744.157 572.651 765.657 572.651 792.157 L 572.651 888.157 C 572.651 914.657 551.151 936.157 524.651 936.157 L 508.651 936.157 L 508.651 744.157 L 524.651 744.157 Z" style="fill: rgb(255, 255, 255);" transform="matrix(1, 0, 0, 1, 0, 1.4210854715202004e-14)"/>
</svg>