%TF.GenerationSoftware,KiCad,Pcbnew,(6.0.9)*%
%TF.CreationDate,2025-12-19T11:27:33+11:00*%
%TF.ProjectId,hand_sensor_pcb_rail,68616e64-5f73-4656-9e73-6f725f706362,rev?*%
%TF.SameCoordinates,Original*%
%TF.FileFunction,Profile,NP*%
%FSLAX46Y46*%
G04 Gerber Fmt 4.6, Leading zero omitted, Abs format (unit mm)*
G04 Created by KiCad (PCBNEW (6.0.9)) date 2025-12-19 11:27:33*
%MOMM*%
%LPD*%
G01*
G04 APERTURE LIST*
%TA.AperFunction,Profile*%
%ADD10C,0.200000*%
%TD*%
G04 APERTURE END LIST*
D10*
X378200000Y-162360000D02*
X378200000Y-142360000D01*
X378200000Y-162360000D02*
X28200000Y-162360000D01*
X28200000Y-162360000D02*
X28200000Y-142360000D01*
X137700000Y-142360000D02*
X28200000Y-142360000D01*
X137700000Y-142360000D02*
G75*
G03*
X140200000Y-139860000I0J2500000D01*
G01*
X142700000Y-137360000D02*
G75*
G03*
X140200000Y-139860000I0J-2500000D01*
G01*
X152700000Y-137360000D02*
X142700000Y-137360000D01*
X155200000Y-139860000D02*
G75*
G03*
X152700000Y-137360000I-2500000J0D01*
G01*
X155200000Y-139860000D02*
G75*
G03*
X157700000Y-142360000I2500000J0D01*
G01*
X378200000Y-142360000D02*
X157700000Y-142360000D01*
X374950000Y-152360000D02*
G75*
G03*
X374950000Y-152360000I-1750000J0D01*
G01*
X354950000Y-152360000D02*
G75*
G03*
X354950000Y-152360000I-1750000J0D01*
G01*
X334950000Y-152360000D02*
G75*
G03*
X334950000Y-152360000I-1750000J0D01*
G01*
X314950000Y-152360000D02*
G75*
G03*
X314950000Y-152360000I-1750000J0D01*
G01*
X294950000Y-152360000D02*
G75*
G03*
X294950000Y-152360000I-1750000J0D01*
G01*
X274950000Y-152360000D02*
G75*
G03*
X274950000Y-152360000I-1750000J0D01*
G01*
X254950000Y-152360000D02*
G75*
G03*
X254950000Y-152360000I-1750000J0D01*
G01*
X234950000Y-152360000D02*
G75*
G03*
X234950000Y-152360000I-1750000J0D01*
G01*
X214950000Y-152360000D02*
G75*
G03*
X214950000Y-152360000I-1750000J0D01*
G01*
X194950000Y-152360000D02*
G75*
G03*
X194950000Y-152360000I-1750000J0D01*
G01*
X174950000Y-152360000D02*
G75*
G03*
X174950000Y-152360000I-1750000J0D01*
G01*
X154950000Y-152360000D02*
G75*
G03*
X154950000Y-152360000I-1750000J0D01*
G01*
X134950000Y-152360000D02*
G75*
G03*
X134950000Y-152360000I-1750000J0D01*
G01*
X114950000Y-152360000D02*
G75*
G03*
X114950000Y-152360000I-1750000J0D01*
G01*
X94950000Y-152360000D02*
G75*
G03*
X94950000Y-152360000I-1750000J0D01*
G01*
X74950000Y-152360000D02*
G75*
G03*
X74950000Y-152360000I-1750000J0D01*
G01*
X54950000Y-152360000D02*
G75*
G03*
X54950000Y-152360000I-1750000J0D01*
G01*
X34950000Y-152360000D02*
G75*
G03*
X34950000Y-152360000I-1750000J0D01*
G01*
M02*
