%TF.GenerationSoftware,KiCad,Pcbnew,(6.0.9)*%
%TF.CreationDate,2025-12-19T11:27:33+11:00*%
%TF.ProjectId,hand_sensor_pcb_rail,68616e64-5f73-4656-9e73-6f725f706362,rev?*%
%TF.SameCoordinates,Original*%
%TF.FileFunction,Copper,L1,Top*%
%TF.FilePolarity,Positive*%
%FSLAX46Y46*%
G04 Gerber Fmt 4.6, Leading zero omitted, Abs format (unit mm)*
G04 Created by KiCad (PCBNEW (6.0.9)) date 2025-12-19 11:27:33*
%MOMM*%
%LPD*%
G01*
G04 APERTURE LIST*
%TA.AperFunction,NonConductor*%
%ADD10C,0.200000*%
%TD*%
%TA.AperFunction,NonConductor*%
%ADD11C,2.000000*%
%TD*%
%TA.AperFunction,ComponentPad*%
%ADD12R,0.850000X0.850000*%
%TD*%
%TA.AperFunction,ViaPad*%
%ADD13C,0.800000*%
%TD*%
G04 APERTURE END LIST*
D10*
X377710000Y-161370000D02*
X28700000Y-161370000D01*
X28700000Y-161370000D02*
X28700000Y-157860000D01*
X28700000Y-157860000D02*
X377710000Y-157860000D01*
X377710000Y-157860000D02*
X377710000Y-161370000D01*
G36*
X377710000Y-161370000D02*
G01*
X28700000Y-161370000D01*
X28700000Y-157860000D01*
X377710000Y-157860000D01*
X377710000Y-161370000D01*
G37*
X28690000Y-146870000D02*
X377700000Y-146870000D01*
X377700000Y-146870000D02*
X377700000Y-143360000D01*
X377700000Y-143360000D02*
X28690000Y-143360000D01*
X28690000Y-143360000D02*
X28690000Y-146870000D01*
G36*
X28690000Y-146870000D02*
G01*
X377700000Y-146870000D01*
X377700000Y-143360000D01*
X28690000Y-143360000D01*
X28690000Y-146870000D01*
G37*
X139700000Y-158750000D02*
X144780000Y-158750000D01*
X144780000Y-158750000D02*
X144780000Y-154940000D01*
X144780000Y-154940000D02*
X139700000Y-154940000D01*
X139700000Y-154940000D02*
X139700000Y-158750000D01*
G36*
X139700000Y-158750000D02*
G01*
X144780000Y-158750000D01*
X144780000Y-154940000D01*
X139700000Y-154940000D01*
X139700000Y-158750000D01*
G37*
D11*
X152400000Y-139700000D02*
X152400000Y-144780000D01*
D12*
%TO.P,J2,1,Pin_1*%
%TO.N,GND*%
X142240000Y-139700000D03*
%TD*%
%TO.P,J1,1,Pin_1*%
%TO.N,+VDC*%
X152400000Y-139700000D03*
%TD*%
D13*
%TO.N,*%
X143510000Y-156210000D03*
X142240000Y-156210000D03*
X140970000Y-156210000D03*
%TD*%
M02*
